<svg xmlns="http://www.w3.org/2000/svg" xmlns:svg="http://www.w3.org/2000/svg" id="svg7221" width="16.003" height="16" version="1.1" viewBox="0 0 16.003 16"><metadata id="metadata7226"/><g id="layer1" transform="translate(-366.99825,-524.3622)"><g id="g7201" transform="translate(25.998054,63.362205)" style="display:inline"><g id="g16974"><path id="path7205" d="M 101.96875,244 C 100.87755,244 100,244.87755 100,245.96875 l 0,12.0625 c 0,1.0912 0.87755,1.96875 1.96875,1.96875 L 114,260 c 0.554,0 1,-0.446 1,-1 l 0,-11 c 0,-0.554 -0.446,-1 -1,-1 l -12,0 c -0.554,0 -1,-0.446 -1,-1 0,-0.554 0.446,-1 1,-1 l 12,0 c 0,-0.55856 -0.44144,-1 -1,-1 l -11.03125,0 z m 5.79492,4.92383 c 0.67546,0.003 1.0333,2.39564 1.57813,2.79492 0.54503,0.39943 2.93625,0.0206 3.14258,0.66406 0.20624,0.64321 -1.95855,1.7237 -2.16993,2.36524 -0.21146,0.64179 0.88611,2.79829 0.33789,3.19336 -0.54799,0.39491 -2.24446,-1.32925 -2.91992,-1.33203 -0.67572,-0.003 -2.3865,1.70789 -2.93164,1.30859 -0.54493,-0.39914 0.56936,-2.54619 0.36328,-3.18945 -0.20616,-0.64351 -2.36169,-1.74293 -2.15039,-2.38477 0.21122,-0.64159 2.59839,-0.2439 3.14649,-0.63867 0.54831,-0.39493 0.92779,-2.78387 1.60351,-2.78125 z" transform="translate(241.0002,217)" style="color:#000;display:inline;overflow:visible;visibility:visible;fill:#bebebe;fill-opacity:1;fill-rule:nonzero;stroke:none;stroke-width:2;marker:none;enable-background:accumulate"/></g></g></g></svg>