<svg xmlns="http://www.w3.org/2000/svg" xmlns:svg="http://www.w3.org/2000/svg" id="svg7221" width="16.003" height="16" version="1.1" viewBox="0 0 16.003 16"><metadata id="metadata7226"/><g id="layer1" transform="translate(-366.99825,-524.3622)"><g id="g7884"><g id="g7890"><g id="g7894"><path style="color:#000;clip-rule:nonzero;display:inline;overflow:visible;visibility:visible;opacity:1;isolation:auto;mix-blend-mode:normal;color-interpolation:sRGB;color-interpolation-filters:linearRGB;solid-color:#000;solid-opacity:1;fill:#bebebe;fill-opacity:1;fill-rule:nonzero;stroke:none;stroke-width:1;stroke-linecap:butt;stroke-linejoin:miter;stroke-miterlimit:4;stroke-dasharray:4,4;stroke-dashoffset:0;stroke-opacity:1;marker:none;color-rendering:auto;image-rendering:auto;shape-rendering:auto;text-rendering:auto;enable-background:accumulate" id="path7888" d="m 374.15994,526.74583 -4.68029,0.26893 -0.23767,4.71155 6.26952,6.26954 c 0.39176,0.3917 1.02232,0.39173 1.41406,-10e-6 l 3.53516,-3.53515 c 0.39174,-0.39176 0.39177,-1.02233 2e-5,-1.41407 z m -1.90055,1.83578 c 0.31165,0.004 0.60946,0.12944 0.83008,0.34963 0.4679,0.46747 0.46792,1.22586 0,1.69334 -0.46748,0.46791 -1.22587,0.46791 -1.69336,10e-6 -0.46789,-0.46749 -0.46789,-1.22588 0,-1.69337 0.22879,-0.22827 0.5401,-0.35444 0.86328,-0.34961 z"/></g></g></g></g></svg>