<svg xmlns="http://www.w3.org/2000/svg" xmlns:svg="http://www.w3.org/2000/svg" id="svg7384" width="16" height="16" version="1.1"><metadata id="metadata90"/><title id="title9167">Gnome Symbolic Icon Theme</title><path id="path859" d="M 2.199219,0 C 0.944466,0 0,1.0997689 0,2.3183594 V 13.681641 C 0,14.900231 0.944477,16 2.199219,16 H 13.80078 C 15.05552,16 16,14.90024 16,13.681641 V 2.3183594 C 16,1.0997598 15.05553,0 13.80078,0 Z m 0,2 H 13.80078 C 13.87437,2 14,2.0752716 14,2.3183594 V 13.681641 C 14,13.924729 13.87438,14 13.80078,14 H 2.199219 C 2.12562,14 2,13.924738 2,13.681641 V 2.3183594 C 2,2.0752625 2.125631,2 2.199219,2 Z" style="color:#bebebe;font-style:normal;font-variant:normal;font-weight:400;font-stretch:normal;font-size:medium;line-height:normal;font-family:sans-serif;font-variant-ligatures:normal;font-variant-position:normal;font-variant-caps:normal;font-variant-numeric:normal;font-variant-alternates:normal;font-feature-settings:normal;text-indent:0;text-align:start;text-decoration:none;text-decoration-line:none;text-decoration-style:solid;text-decoration-color:#000;letter-spacing:normal;word-spacing:normal;text-transform:none;writing-mode:lr-tb;direction:ltr;text-orientation:mixed;dominant-baseline:auto;baseline-shift:baseline;text-anchor:start;white-space:normal;shape-padding:0;clip-rule:nonzero;display:inline;overflow:visible;visibility:visible;opacity:1;isolation:auto;mix-blend-mode:normal;color-interpolation:sRGB;color-interpolation-filters:linearRGB;solid-color:#000;solid-opacity:1;vector-effect:none;fill:#241f31;fill-opacity:1;fill-rule:nonzero;stroke:none;stroke-width:2;stroke-linecap:butt;stroke-linejoin:miter;stroke-miterlimit:4;stroke-dasharray:none;stroke-dashoffset:0;stroke-opacity:1;marker:none;color-rendering:auto;image-rendering:auto;shape-rendering:auto;text-rendering:auto;enable-background:accumulate"/><g id="text863" aria-label="∞" transform="translate(20)" style="font-style:normal;font-variant:normal;font-weight:700;font-stretch:normal;font-size:12px;line-height:1.25;font-family:Cantarell;-inkscape-font-specification:'Cantarell Bold';text-align:center;letter-spacing:0;word-spacing:0;text-anchor:middle;fill:#241f31;fill-opacity:1;stroke:none"><path id="path880" d="m -14.519998,10.488 c 1.14,0 1.836,-0.66 2.388,-1.44 0.504,0.78 1.176,1.44 2.388,1.44 1.572,0 2.628,-1.068 2.628,-2.64 0,-1.488 -0.972,-2.472 -2.376,-2.472 -1.104,0 -1.8,0.624 -2.352,1.356 -0.48,-0.732 -1.14,-1.356 -2.352,-1.356 -1.596,0 -2.688,1.056 -2.688,2.64 0,1.476 0.972,2.472 2.364,2.472 z m -0.804,-2.58 c 0,-0.744 0.396,-1.236 1.056,-1.236 0.744,0 1.152,0.624 1.56,1.38 -0.42,0.636 -0.864,1.14 -1.524,1.14 -0.672,0 -1.092,-0.516 -1.092,-1.284 z m 5.544,-1.236 c 0.648,0 1.104,0.492 1.104,1.32 0,0.72 -0.36,1.2 -1.02,1.2 -0.78,0 -1.176,-0.672 -1.572,-1.452 0.408,-0.6 0.852,-1.068 1.488,-1.068 z"/></g></svg>