<svg xmlns="http://www.w3.org/2000/svg" xmlns:svg="http://www.w3.org/2000/svg" id="svg7384" width="16" height="16" version="1.1"><metadata id="metadata90"/><title id="title9167">Gnome Symbolic Icon Theme</title><g id="g4572"><path style="color:#bebebe;font-style:normal;font-variant:normal;font-weight:400;font-stretch:normal;font-size:medium;line-height:normal;font-family:sans-serif;font-variant-ligatures:normal;font-variant-position:normal;font-variant-caps:normal;font-variant-numeric:normal;font-variant-alternates:normal;font-feature-settings:normal;text-indent:0;text-align:start;text-decoration:none;text-decoration-line:none;text-decoration-style:solid;text-decoration-color:#000;letter-spacing:normal;word-spacing:normal;text-transform:none;writing-mode:lr-tb;direction:ltr;text-orientation:mixed;dominant-baseline:auto;baseline-shift:baseline;text-anchor:start;white-space:normal;shape-padding:0;clip-rule:nonzero;display:inline;overflow:visible;visibility:visible;opacity:1;isolation:auto;mix-blend-mode:normal;color-interpolation:sRGB;color-interpolation-filters:linearRGB;solid-color:#000;solid-opacity:1;vector-effect:none;fill:#bebebe;fill-opacity:1;fill-rule:nonzero;stroke:none;stroke-width:2;stroke-linecap:butt;stroke-linejoin:miter;stroke-miterlimit:4;stroke-dasharray:none;stroke-dashoffset:0;stroke-opacity:1;marker:none;color-rendering:auto;image-rendering:auto;shape-rendering:auto;text-rendering:auto;enable-background:accumulate" id="rect11749-5-9" d="M 2.1992188,0 C 0.94446612,0 0,1.0997689 0,2.3183594 V 13.681641 C 0,14.900231 0.94447706,16 2.1992188,16 H 13.800781 C 15.055523,16 16,14.90024 16,13.681641 V 2.3183594 C 16,1.0997598 15.055534,0 13.800781,0 Z m 0,2 H 13.800781 C 13.874369,2 14,2.0752716 14,2.3183594 V 13.681641 C 14,13.924729 13.87438,14 13.800781,14 H 2.1992188 C 2.1256204,14 2,13.924738 2,13.681641 V 2.3183594 C 2,2.0752625 2.1256314,2 2.1992188,2 Z"/></g></svg>