<svg xmlns="http://www.w3.org/2000/svg" xmlns:svg="http://www.w3.org/2000/svg" xmlns:xlink="http://www.w3.org/1999/xlink" id="svg11300" width="128" height="128" enable-background="new" version="1.0" viewBox="0 0 128 128" style="display:inline;enable-background:new"><title id="title4162">Adwaita Icon Template</title><defs id="defs3"><linearGradient id="linearGradient1099" x1="32" x2="96" y1="236" y2="236" gradientTransform="translate(604.81684,170.58641)" gradientUnits="userSpaceOnUse" xlink:href="#linearGradient1036"/><linearGradient id="linearGradient1036"><stop id="stop1032" offset="0" style="stop-color:#d5d3cf;stop-opacity:1"/><stop id="stop1034" offset="1" style="stop-color:#f6f5f4;stop-opacity:1"/></linearGradient><radialGradient id="radialGradient1103" cx="-244" cy="-76" r="32" fx="-244" fy="-76" gradientTransform="matrix(0.88333331,0,0,0.88333331,-460.35018,463.11973)" gradientUnits="userSpaceOnUse" xlink:href="#linearGradient1069"/><linearGradient id="linearGradient1069"><stop id="stop1065" offset="0" style="stop-color:#d5d3cf;stop-opacity:1"/><stop id="stop1067-1" offset="1" style="stop-color:#949390;stop-opacity:1"/></linearGradient><linearGradient id="linearGradient1027" x1="64" x2="64" y1="262.5" y2="232" gradientTransform="translate(-470.5864,432.81685)" gradientUnits="userSpaceOnUse" xlink:href="#linearGradient1025"/><linearGradient id="linearGradient1025"><stop id="stop1021" offset="0" style="stop-color:#9a9996;stop-opacity:1"/><stop id="stop1023" offset="1" style="stop-color:#77767b;stop-opacity:1"/></linearGradient><clipPath id="clipPath1609-7" clipPathUnits="userSpaceOnUse"><path id="path1611-5" d="m 252,116 28,-28 v -8 h -36 v 36 z" style="fill:#e74747;stroke:none;stroke-width:.25px;stroke-linecap:butt;stroke-linejoin:miter;stroke-opacity:1"/></clipPath></defs><metadata id="metadata4"/><g id="layer1" transform="translate(0,-172)" style="display:inline"><g id="layer2" style="display:none"><rect style="display:inline;overflow:visible;visibility:visible;fill:#f0f0f0;fill-opacity:1;fill-rule:nonzero;stroke:none;stroke-width:.5;marker:none;enable-background:accumulate" id="rect13805" width="128" height="128" x="0" y="172"/></g><g id="layer9" style="display:inline"><g style="display:inline;opacity:1;stroke-width:1.08250976;enable-background:new" id="g31679" transform="matrix(0.70804647,0,0,0.70804647,351.8656,-30.978271)"><g id="object-visible" transform="matrix(6.6969694,0,0,6.6969694,-1566.5757,-6110.7524)" style="stroke-width:1.08250976"><rect style="fill:none;stroke:none;stroke-width:1.08250976" id="rect11899" width="16" height="16" x="165" y="961.362"/><path style="fill:#babdb6;fill-opacity:1;stroke:none;stroke-width:1.08250976" id="path11920" d="m 173,966.36218 c -1.65685,0 -3,1.34315 -3,3 0,1.65685 1.34315,3 3,3 1.65685,0 3,-1.34315 3,-3 0,-1.65685 -1.34315,-3 -3,-3 z m -0.49307,0.82564 c 0.37409,0 0.68307,0.31081 0.68307,0.69792 0,0.38712 -0.30898,0.71277 -0.68307,0.71277 -0.3741,0 -0.68308,-0.32565 -0.68308,-0.71277 0,-0.38711 0.30898,-0.69792 0.68308,-0.69792 z"/><path style="fill:#babdb6;fill-opacity:1;stroke:none;stroke-width:1.08250976" id="path11928" d="m 173,963.36218 c -4.41828,0 -8,6 -8,6 0,0 3.58172,6 8,6 4.41828,0 8,-6 8,-6 0,0 -3.58172,-6 -8,-6 z m 0,2 c 3.86599,0 6,4 6,4 0,0 -2.13401,4 -6,4 -3.86599,0 -6,-4 -6,-4 0,0 2.13401,-4 6,-4 z"/><path id="path8543-5" d="m 167,967.29968 -1,-1" style="color:#000;display:inline;overflow:visible;visibility:visible;fill:none;stroke:#babdb6;stroke-width:1.08250976;stroke-linecap:round;stroke-linejoin:miter;stroke-miterlimit:4;stroke-dasharray:none;stroke-dashoffset:0;stroke-opacity:1;marker:none;enable-background:accumulate"/><path style="color:#000;display:inline;overflow:visible;visibility:visible;fill:none;stroke:#babdb6;stroke-width:1.08250976;stroke-linecap:round;stroke-linejoin:miter;stroke-miterlimit:4;stroke-dasharray:none;stroke-dashoffset:0;stroke-opacity:1;marker:none;enable-background:accumulate" id="path8545-3" d="m 179,967.29968 1,-1"/><path id="path8547-1" d="m 169,966.29968 -2,-2" style="color:#000;display:inline;overflow:visible;visibility:visible;fill:none;stroke:#babdb6;stroke-width:1.08250976;stroke-linecap:round;stroke-miterlimit:4;stroke-dasharray:none;stroke-opacity:1;marker:none;enable-background:accumulate"/><path style="color:#000;display:inline;overflow:visible;visibility:visible;fill:none;stroke:#babdb6;stroke-width:1.08250976;stroke-linecap:round;stroke-miterlimit:4;stroke-dasharray:none;stroke-opacity:1;marker:none;enable-background:accumulate" id="path8572-7" d="M 170.375,964.86218 169,962.48718"/><path id="path8574-8" d="m 172.4375,964.36218 -0.6875,-3" style="color:#000;display:inline;overflow:visible;visibility:visible;fill:none;stroke:#babdb6;stroke-width:1.08250976;stroke-linecap:round;stroke-miterlimit:4;stroke-dasharray:none;stroke-opacity:1;marker:none;enable-background:accumulate"/><path style="color:#000;display:inline;overflow:visible;visibility:visible;fill:none;stroke:#babdb6;stroke-width:1.08250976;stroke-linecap:round;stroke-miterlimit:4;stroke-dasharray:none;stroke-opacity:1;marker:none;enable-background:accumulate" id="path8578-8" d="m 177.4375,966.29968 1.5625,-2"/><path id="path8580-4" d="m 176.0625,964.86218 1.33081,-2.15403" style="color:#000;display:inline;overflow:visible;visibility:visible;fill:none;stroke:#babdb6;stroke-width:1.08250976;stroke-linecap:round;stroke-miterlimit:4;stroke-dasharray:none;stroke-opacity:1;marker:none;enable-background:accumulate"/><path style="color:#000;display:inline;overflow:visible;visibility:visible;fill:none;stroke:#babdb6;stroke-width:1.08250976;stroke-linecap:round;stroke-miterlimit:4;stroke-dasharray:none;stroke-opacity:1;marker:none;enable-background:accumulate" id="path8582-8" d="m 174,964.36218 0.86428,-3"/></g><circle id="path31167" cx="253.5" cy="361.5" r="73.5" transform="translate(-660,15.36218)" style="color:#000;display:inline;overflow:visible;visibility:visible;fill:none;stroke:#babdb6;stroke-width:21.65019417;stroke-linecap:butt;stroke-linejoin:miter;stroke-miterlimit:4;stroke-dasharray:none;stroke-dashoffset:0;stroke-opacity:1;marker:none;enable-background:accumulate"/><path id="path31677" d="m -358,317.36218 -92.51056,113.59198" style="fill:none;stroke:#babdb6;stroke-width:13.59241199;stroke-linecap:butt;stroke-linejoin:miter;stroke-miterlimit:4;stroke-dasharray:none;stroke-opacity:1"/></g></g></g></svg>